<svg xmlns="http://www.w3.org/2000/svg" width="1200" height="553" viewBox="0 0 1200 553" font-family="Arial,sans-serif"><rect width="100%" height="100%" fill="#111b2b"/><text x="20" y="25" fill="#fff" font-size="16">project timeline — b97a7488-1aa4-42c4-9248-5980e8e8230e</text><text x="20" y="45" fill="#9aadc6" font-size="12">Display axis only · exact evidence and availability are retained in the manifest</text><path d="M140 61L140 76" stroke="#72849b" stroke-width="1"/><text x="140" y="94" fill="#dce4ef" font-size="12">0.400 s</text><path d="M396.25 61L396.25 76" stroke="#72849b" stroke-width="1"/><text x="396.25" y="94" fill="#dce4ef" font-size="12">0.500 s</text><path d="M652.5 61L652.5 76" stroke="#72849b" stroke-width="1"/><text x="652.5" y="94" fill="#dce4ef" font-size="12">0.600 s</text><path d="M908.75 61L908.75 76" stroke="#72849b" stroke-width="1"/><text x="908.75" y="94" fill="#dce4ef" font-size="12">0.700 s</text><path d="M1165 61L1165 76" stroke="#72849b" stroke-width="1"/><text x="1118" y="94" fill="#dce4ef" font-size="12">0.800 s</text><text x="20" y="128" fill="#dce4ef" font-size="12">Pictures</text><text x="140" y="286" fill="#9aadc6" font-size="11">Blue tick: request; span: compiled support (project only)</text><text x="20" y="315" fill="#ffb38a" font-size="12">Waveform: queued</text><text x="20" y="355" fill="#dce4ef" font-size="12">Words / gaps</text><text x="140" y="355" fill="#9aadc6" font-size="11">Faint lines are row guides, not media support</text><text x="140" y="376" fill="#ffb38a" font-size="12">Transcript: processing</text><text x="20" y="410" fill="#dce4ef" font-size="12">Cuts / events</text><text x="404.25" y="436" fill="#dce4ef" font-size="12" textLength="288" lengthAdjust="spacingAndGlyphs">cut · audio · 0.500 s · track:e06…9468:0</text><rect x="394.25" y="422" width="4" height="21" fill="#ef9393"/><text x="660.5" y="466" fill="#dce4ef" font-size="12" textLength="288" lengthAdjust="spacingAndGlyphs">cut · audio · 0.600 s · track:e06…9468:0</text><rect x="650.5" y="452" width="4" height="21" fill="#ef9393"/><text x="140" y="505" fill="#9aadc6" font-size="12">2 observed cuts · 2 of 2 event labels shown · ready</text><text x="20" y="533" fill="#9aadc6" font-size="11">Frames show selected samples, not continuous decode. Unseen or unheard quality is unverified.</text></svg>